<?xml version="1.0" standalone="no"?>
<!DOCTYPE svg PUBLIC "-//W3C//DTD SVG 20010904//EN"
 "http://www.w3.org/TR/2001/REC-SVG-20010904/DTD/svg10.dtd">
<svg version="1.0" xmlns="http://www.w3.org/2000/svg"
 width="225.000000pt" height="224.000000pt" viewBox="0 0 225.000000 224.000000"
 preserveAspectRatio="xMidYMid meet">

<g transform="translate(0.000000,224.000000) scale(0.100000,-0.100000)"
fill="#000000" stroke="none">
<path d="M0 1120 l0 -1120 1125 0 1125 0 0 1120 0 1120 -1125 0 -1125 0 0
-1120z m1500 825 c0 -8 -7 -15 -15 -15 -8 0 -15 7 -15 15 0 8 7 15 15 15 8 0
15 -7 15 -15z m-420 -14 c0 -5 -7 -14 -16 -22 -13 -10 -17 -10 -24 1 -5 8 -6
18 -4 22 7 11 44 10 44 -1z m-150 -806 c0 -709 -2 -805 -15 -805 -13 0 -15 95
-15 798 0 439 3 802 7 805 3 4 10 7 15 7 4 0 8 -362 8 -805z m-336 780 c53
-11 81 -12 100 -5 24 9 27 7 39 -23 27 -63 49 -138 43 -144 -3 -4 -7 -4 -9 -2
-65 95 -136 146 -216 156 -121 14 -200 -66 -169 -170 17 -56 67 -89 203 -132
170 -55 215 -96 215 -198 0 -66 -16 -103 -59 -140 -48 -40 -93 -50 -185 -42
-104 9 -167 11 -184 5 -18 -6 -84 160 -70 175 6 7 13 4 20 -9 81 -144 294
-202 389 -107 57 57 45 169 -22 210 -18 11 -71 32 -118 47 -47 15 -106 37
-131 49 -108 55 -145 144 -101 242 22 48 54 71 119 89 60 16 51 16 136 -1z
m500 -44 c8 -12 -21 -34 -33 -27 -6 4 -8 13 -4 21 6 17 29 20 37 6z m354 -23
c-6 -18 -28 -21 -28 -4 0 9 7 16 16 16 9 0 14 -5 12 -12z m-128 -28 c0 -5 -4
-10 -10 -10 -5 0 -10 5 -10 10 0 6 5 10 10 10 6 0 10 -4 10 -10z m-7 -76 c8
-8 -3 -34 -14 -34 -5 0 -9 9 -9 20 0 19 11 26 23 14z m-167 -121 c-10 -10 -19
5 -10 18 6 11 8 11 12 0 2 -7 1 -15 -2 -18z m184 -73 c0 -5 -4 -10 -10 -10 -5
0 -10 5 -10 10 0 6 5 10 10 10 6 0 10 -4 10 -10z m-90 -4 c0 -3 -4 -8 -10 -11
-5 -3 -10 -1 -10 4 0 6 5 11 10 11 6 0 10 -2 10 -4z m-170 -26 c0 -5 -2 -10
-4 -10 -3 0 -8 5 -11 10 -3 6 -1 10 4 10 6 0 11 -4 11 -10z m690 3 c0 -5 -7
-17 -15 -27 -17 -23 -19 -69 -5 -97 20 -37 39 -21 60 52 12 38 28 73 36 76 21
8 44 -16 43 -46 -1 -20 -2 -22 -6 -6 -14 58 -44 38 -67 -44 -19 -68 -38 -90
-61 -71 -20 17 -29 92 -15 134 10 31 31 51 30 29z m-635 -73 c3 -5 1 -10 -4
-10 -6 0 -11 5 -11 10 0 6 2 10 4 10 3 0 8 -4 11 -10z m745 -79 c-6 -12 -15
-21 -20 -21 -16 0 -11 27 5 34 8 3 16 13 16 23 1 16 2 16 6 1 2 -9 -1 -26 -7
-37z m-780 29 c0 -5 -4 -10 -10 -10 -5 0 -10 5 -10 10 0 6 5 10 10 10 6 0 10
-4 10 -10z m787 -182 c-2 -18 -4 -6 -4 27 0 33 2 48 4 33 2 -15 2 -42 0 -60z
m-654 53 c-23 -11 -46 -29 -52 -40 -8 -13 -11 -78 -9 -181 l3 -161 118 146
c65 81 121 153 124 161 3 9 -6 19 -26 27 -17 7 -28 16 -24 20 10 10 253 8 253
-2 0 -5 -17 -11 -37 -14 -21 -4 -48 -14 -61 -23 -31 -21 -323 -356 -320 -366
8 -23 460 -496 512 -534 80 -61 157 -95 230 -102 53 -4 57 -7 41 -19 -12 -8
-47 -13 -94 -13 -60 0 -87 6 -129 25 -89 41 -236 160 -344 278 -57 61 -136
145 -175 186 l-73 76 0 -123 c0 -117 1 -124 25 -147 13 -14 33 -25 44 -25 11
0 23 -4 26 -10 4 -6 -42 -10 -129 -10 -84 0 -136 4 -136 10 0 6 11 10 25 10
14 0 34 9 45 20 19 19 20 33 20 385 0 250 -4 372 -11 389 -7 14 -28 32 -48 40
-34 14 -30 15 104 15 l140 1 -42 -19z m657 -108 c0 -9 -23 -13 -80 -13 -44 0
-80 4 -80 9 0 14 13 16 90 16 49 0 70 -4 70 -12z m0 -78 c0 -12 -16 -15 -80
-15 -64 0 -80 3 -80 15 0 12 16 15 80 15 64 0 80 -3 80 -15z m0 -79 c0 -8 -7
-16 -15 -20 -22 -8 -21 -133 2 -158 29 -32 10 -27 -69 19 -51 30 -78 52 -78
64 0 11 26 34 73 62 81 50 87 53 87 33z m-1100 -6 c0 -5 -4 -10 -10 -10 -5 0
-10 5 -10 10 0 6 5 10 10 10 6 0 10 -4 10 -10z m-155 -140 c3 -5 1 -10 -4 -10
-6 0 -11 5 -11 10 0 6 2 10 4 10 3 0 8 -4 11 -10z m-85 -10 c0 -5 -4 -10 -10
-10 -5 0 -10 5 -10 10 0 6 5 10 10 10 6 0 10 -4 10 -10z m180 -78 c0 -13 -12
-22 -22 -16 -10 6 -1 24 13 24 5 0 9 -4 9 -8z m-205 -22 c3 -5 1 -10 -4 -10
-6 0 -11 5 -11 10 0 6 2 10 4 10 3 0 8 -4 11 -10z m1365 -12 c0 -7 -30 -43
-67 -80 l-67 -68 67 0 c53 0 67 -3 67 -15 0 -12 -16 -15 -80 -15 -104 0 -105
12 -8 102 l73 68 -72 0 c-42 0 -73 4 -73 10 0 6 33 10 80 10 56 0 80 -4 80
-12z m-1320 -69 c0 -24 -23 -21 -28 4 -2 10 3 17 12 17 10 0 16 -9 16 -21z
m-10 -83 c0 -3 -4 -8 -10 -11 -5 -3 -10 -1 -10 4 0 6 5 11 10 11 6 0 10 -2 10
-4z m-122 -34 c2 -7 -3 -12 -12 -12 -9 0 -16 7 -16 16 0 17 22 14 28 -4z m362
-6 c0 -18 -17 -29 -30 -21 -8 5 -7 11 1 21 15 18 29 18 29 0z m18 -79 c2 -12
-3 -17 -17 -17 -12 0 -21 6 -21 13 0 31 32 34 38 4z m-428 -22 c0 -8 -7 -15
-15 -15 -8 0 -15 7 -15 15 0 8 7 15 15 15 8 0 15 -7 15 -15z"/>
<path d="M1788 932 c-27 -15 -48 -30 -48 -33 0 -3 23 -18 50 -33 l50 -27 0 60
c0 34 -1 61 -2 61 -2 0 -24 -13 -50 -28z"/>
</g>
</svg>
