<?xml version="1.0" standalone="no"?>
<!DOCTYPE svg PUBLIC "-//W3C//DTD SVG 20010904//EN"
 "http://www.w3.org/TR/2001/REC-SVG-20010904/DTD/svg10.dtd">
<svg version="1.0" xmlns="http://www.w3.org/2000/svg"
 width="120.000000pt" height="48.000000pt" viewBox="0 0 380.000000 132.000000"
 preserveAspectRatio="xMidYMid meet">

<g transform="translate(0.000000,132.000000) scale(0.100000,-0.100000)"
fill="#ffffff" stroke="none">
<path d="M0 660 l0 -660 1900 0 1900 0 0 660 0 660 -1900 0 -1900 0 0 -660z
m1780 486 c0 -3 -4 -8 -10 -11 -5 -3 -10 -1 -10 4 0 6 5 11 10 11 6 0 10 -2
10 -4z m-250 -16 c0 -5 -4 -10 -10 -10 -5 0 -10 5 -10 10 0 6 5 10 10 10 6 0
10 -4 10 -10z m-236 -13 c24 -2 31 -9 47 -49 20 -52 12 -64 -15 -23 -53 81
-197 87 -207 10 -7 -48 11 -76 64 -101 29 -13 58 -24 65 -24 23 0 90 -39 106
-62 9 -12 16 -35 16 -50 0 -72 -53 -114 -140 -110 -30 2 -72 4 -92 5 -35 1
-39 4 -53 46 -21 63 -19 71 12 32 51 -65 155 -91 207 -50 21 16 26 29 26 64 0
52 -14 65 -106 95 -88 30 -127 58 -138 101 -19 75 47 136 134 124 25 -3 58 -7
74 -8z m147 -457 c0 -255 -3 -465 -6 -468 -3 -3 -5 208 -5 468 0 260 2 471 5
468 4 -3 6 -214 6 -468z m99 430 c0 -5 -4 -10 -10 -10 -5 0 -10 5 -10 10 0 6
5 10 10 10 6 0 10 -4 10 -10z m210 -10 c0 -5 -4 -10 -10 -10 -5 0 -10 5 -10
10 0 6 5 10 10 10 6 0 10 -4 10 -10z m-80 -70 c0 -5 -2 -10 -4 -10 -3 0 -8 5
-11 10 -3 6 -1 10 4 10 6 0 11 -4 11 -10z m-52 -266 c-35 -18 -40 -38 -36
-141 l3 -82 68 84 c37 47 67 87 67 91 0 4 -8 13 -17 20 -15 11 68 13 502 11
l520 -2 -464 -5 -464 -5 -64 -70 c-36 -38 -81 -89 -100 -112 l-35 -43 33 -37
c207 -238 311 -326 397 -339 37 -5 43 -9 27 -15 -83 -32 -174 18 -342 189
l-133 135 0 -71 c0 -65 2 -72 28 -91 l27 -20 -77 -1 c-43 0 -78 2 -78 5 0 3
11 10 25 15 l25 10 0 219 c0 121 -3 226 -6 235 -3 9 -12 16 -19 16 -8 0 -17 5
-20 10 -4 6 24 10 77 10 79 -1 82 -1 56 -16z m468 -186 l39 -103 6 100 5 100
2 -125 c2 -138 -1 -139 -48 -10 -45 121 -47 121 -42 7 3 -70 1 -107 -7 -111
-8 -5 -11 29 -11 118 0 69 4 126 9 126 5 0 26 -46 47 -102z m222 -20 c17 -68
29 -124 27 -127 -3 -2 -6 2 -9 10 -15 48 -15 49 -56 49 -27 0 -42 -5 -45 -15
-3 -8 -7 -22 -10 -31 -3 -9 -7 -15 -9 -13 -6 7 56 249 64 249 4 0 21 -55 38
-122z m99 -65 c-2 -37 -3 -10 -3 62 0 72 1 102 3 68 2 -34 2 -93 0 -130z m116
-56 l42 -4 -47 -1 -48 -2 2 128 2 127 3 -122 4 -122 42 -4z m193 218 c9 -14
14 -28 11 -32 -4 -3 -11 6 -17 21 -8 22 -15 27 -36 24 -60 -7 -57 -70 6 -112
47 -31 59 -65 36 -101 -32 -48 -107 -21 -93 33 4 13 5 13 6 -3 3 -49 65 -63
81 -19 14 35 16 30 -40 84 -34 33 -50 56 -50 73 0 56 66 77 96 32z m-1566
-315 c0 -5 -4 -10 -10 -10 -5 0 -10 5 -10 10 0 6 5 10 10 10 6 0 10 -4 10 -10z
m210 -10 c0 -5 -4 -10 -10 -10 -5 0 -10 5 -10 10 0 6 5 10 10 10 6 0 10 -4 10
-10z m10 -40 c0 -5 -4 -10 -10 -10 -5 0 -10 5 -10 10 0 6 5 10 10 10 6 0 10
-4 10 -10z m-250 -10 c0 -5 -4 -10 -10 -10 -5 0 -10 5 -10 10 0 6 5 10 10 10
6 0 10 -4 10 -10z"/>
<path d="M2252 570 c-7 -34 -15 -67 -19 -75 -4 -12 4 -15 37 -15 35 0 41 3 36
18 -3 9 -10 40 -17 67 -17 72 -23 73 -37 5z"/>
</g>
</svg>
